<svg xmlns="http://www.w3.org/2000/svg">
  <symbol id="image" viewBox="0 0 24 24">
    <path d="M0 0h24v24H0V0z" fill="none"/>
    <path d="M19 5v14H5V5h14m0-2H5c-1.1 0-2 .9-2 2v14c0 1.1.9 2 2 2h14c1.1 0 2-.9 2-2V5c0-1.1-.9-2-2-2zm-4.86 8.86l-3 3.87L9 13.14 6 17h12l-3.86-5.14z"/>
  </symbol>

  <symbol id="pen" viewBox="0 0 24 24">
    <path d="M0 0h24v24H0V0z" fill="none"/>
    <path d="M14.06 9.02l.92.92L5.92 19H5v-.92l9.06-9.06M17.66 3c-.25 0-.51.1-.7.29l-1.83 1.83 3.75 3.75 1.83-1.83c.39-.39.39-1.02 0-1.41l-2.34-2.34c-.2-.2-.45-.29-.71-.29zm-3.6 3.19L3 17.25V21h3.75L17.81 9.94l-3.75-3.75z"/>
  </symbol>

  <symbol id="brush" viewBox="0 0 24 24" >
    <path d="M0 0h24v24H0V0z" fill="none"/>
    <path d="M7 16c.55 0 1 .45 1 1 0 1.1-.9 2-2 2-.17 0-.33-.02-.5-.05.31-.55.5-1.21.5-1.95 0-.55.45-1 1-1M18.67 3c-.26 0-.51.1-.71.29L9 12.25 11.75 15l8.96-8.96c.39-.39.39-1.02 0-1.41l-1.34-1.34c-.2-.2-.45-.29-.7-.29zM7 14c-1.66 0-3 1.34-3 3 0 1.31-1.16 2-2 2 .92 1.22 2.49 2 4 2 2.21 0 4-1.79 4-4 0-1.66-1.34-3-3-3z"/>
  </symbol>

  <symbol id="circle" viewBox="0 0 24 24">
    <path d="M0 0h24v24H0V0z" fill="none"/>
    <path d="M12 2C6.48 2 2 6.48 2 12s4.48 10 10 10 10-4.48 10-10S17.52 2 12 2zm0 18c-4.42 0-8-3.58-8-8s3.58-8 8-8 8 3.58 8 8-3.58 8-8 8z"/>
  </symbol>

  <symbol id="rect" viewBox="0 0 24 24">
    <path d="M0 0h24v24H0z" fill="none"/>
    <path d="M19 3H5c-1.1 0-2 .9-2 2v14c0 1.1.9 2 2 2h14c1.1 0 2-.9 2-2V5c0-1.1-.9-2-2-2zm0 16H5V5h14v14z"/>
  </symbol>

  <symbol id="undo" viewBox="0 0 24 24">
    <path d="M0 0h24v24H0V0z" fill="none"/>
    <path d="M12.5 8c-2.65 0-5.05.99-6.9 2.6L2 7v9h9l-3.62-3.62c1.39-1.16 3.16-1.88 5.12-1.88 3.54 0 6.55 2.31 7.6 5.5l2.37-.78C21.08 11.03 17.15 8 12.5 8z"/>
  </symbol>

  <symbol id="redo" viewBox="0 0 24 24">
    <path d="M0 0h24v24H0V0z" fill="none"/>
    <path d="M18.4 10.6C16.55 8.99 14.15 8 11.5 8c-4.65 0-8.58 3.03-9.96 7.22L3.9 16c1.05-3.19 4.05-5.5 7.6-5.5 1.95 0 3.73.72 5.12 1.88L13 16h9V7l-3.6 3.6z"/>
  </symbol>

  <symbol id="zoomIn" viewBox="0 0 24 24">
    <path d="M0 0h24v24H0V0z" fill="none"/>
    <path d="M15.5 14h-.79l-.28-.27C15.41 12.59 16 11.11 16 9.5 16 5.91 13.09 3 9.5 3S3 5.91 3 9.5 5.91 16 9.5 16c1.61 0 3.09-.59 4.23-1.57l.27.28v.79l5 4.99L20.49 19l-4.99-5zm-6 0C7.01 14 5 11.99 5 9.5S7.01 5 9.5 5 14 7.01 14 9.5 11.99 14 9.5 14zm.5-7H9v2H7v1h2v2h1v-2h2V9h-2z"/>
  </symbol>

  <symbol id="zoom" viewBox="0 0 24 24">
    <rect width="24" height="24" fill="none"/>
    <path d="M6.05127 18H4.50732V7.76514L1.41113 8.90234V7.50781L5.81055 5.85596H6.05127V18ZM10.6582 17.1948C10.6582 16.9292 10.7357 16.7078 10.8906 16.5308C11.0511 16.3537 11.2891 16.2651 11.6045 16.2651C11.9199 16.2651 12.1579 16.3537 12.3184 16.5308C12.4844 16.7078 12.5674 16.9292 12.5674 17.1948C12.5674 17.4494 12.4844 17.6624 12.3184 17.834C12.1579 18.0055 11.9199 18.0913 11.6045 18.0913C11.2891 18.0913 11.0511 18.0055 10.8906 17.834C10.7357 17.6624 10.6582 17.4494 10.6582 17.1948ZM10.6665 9.86523C10.6665 9.59961 10.744 9.37826 10.8989 9.20117C11.0594 9.02409 11.2974 8.93555 11.6128 8.93555C11.9282 8.93555 12.1662 9.02409 12.3267 9.20117C12.4927 9.37826 12.5757 9.59961 12.5757 9.86523C12.5757 10.1198 12.4927 10.3328 12.3267 10.5044C12.1662 10.6759 11.9282 10.7617 11.6128 10.7617C11.2974 10.7617 11.0594 10.6759 10.8989 10.5044C10.744 10.3328 10.6665 10.1198 10.6665 9.86523ZM19.7144 18H18.1704V7.76514L15.0742 8.90234V7.50781L19.4736 5.85596H19.7144V18Z"/>
  </symbol>

  <symbol id="zoomOut" viewBox="0 0 24 24">
    <path d="M0 0h24v24H0V0z" fill="none"/>
    <path d="M15.5 14h-.79l-.28-.27C15.41 12.59 16 11.11 16 9.5 16 5.91 13.09 3 9.5 3S3 5.91 3 9.5 5.91 16 9.5 16c1.61 0 3.09-.59 4.23-1.57l.27.28v.79l5 4.99L20.49 19l-4.99-5zm-6 0C7.01 14 5 11.99 5 9.5S7.01 5 9.5 5 14 7.01 14 9.5 11.99 14 9.5 14zM7 9h5v1H7z"/>
  </symbol>

  <symbol id="grid" viewBox="0 0 24 24">
    <path d="M0,0h24v24H0V0z" fill="none"/>
    <path d="M22,7V5h-3V2h-2v3h-4V2h-2v3H7V2H5v3H2v2h3v4H2v2h3v4H2v2h3v3h2v-3h4v3h2v-3h4v3h2v-3h3v-2h-3v-4h3v-2h-3V7H22z M7,7h4v4 H7V7z M7,17v-4h4v4H7z M17,17h-4v-4h4V17z M17,11h-4V7h4V11z"/>
  </symbol>

  <symbol id="lining" viewBox="0 0 24 24">
    <path d="M0 0h24v24H0V0z" fill="none"/>
    <path d="M3 21h18v-2H3v2zm0-4h18v-2H3v2zm0-4h18v-2H3v2zm0-4h18V7H3v2zm0-6v2h18V3H3z"/>
  </symbol>

  <symbol id="text" viewBox="0 0 24 24">
    <path d="M0 0h24v24H0V0z" fill="none"/>
    <path d="M5 4v3h5.5v12h3V7H19V4H5z"/>
  </symbol>

  <symbol id="cursor" viewBox="0 0 24 24">
    <path d="M0 0h24v24H0V0z" fill="none"/>
    <path d="M20 9c-.04-4.39-3.6-7.93-8-7.93S4.04 4.61 4 9v6c0 4.42 3.58 8 8 8s8-3.58 8-8V9zm-2 0h-5V3.16c2.81.47 4.96 2.9 5 5.84zm-7-5.84V9H6c.04-2.94 2.19-5.37 5-5.84zM18 15c0 3.31-2.69 6-6 6s-6-2.69-6-6v-4h12v4z"/>
  </symbol>

  <symbol id="remove" viewBox="0 0 24 24">
    <path d="M0 0h24v24H0V0z" fill="none"/>
    <path d="M14.12 10.47L12 12.59l-2.13-2.12-1.41 1.41L10.59 14l-2.12 2.12 1.41 1.41L12 15.41l2.12 2.12 1.41-1.41L13.41 14l2.12-2.12zM15.5 4l-1-1h-5l-1 1H5v2h14V4zM6 19c0 1.1.9 2 2 2h8c1.1 0 2-.9 2-2V7H6v12zM8 9h8v10H8V9z"/>
  </symbol>

  <symbol id="triangle" viewBox="0 0 24 24">
    <path d="M0 0h24v24H0V0z" fill="none"/>
    <path d="M12 7.77L18.39 18H5.61L12 7.77M12 4L2 20h20L12 4z"/>
  </symbol>

  <symbol id="line" viewBox="0 0 24 24">
    <rect fill="none" height="24" width="24"/>
    <polygon points="13,3 16.29,6.29 6.29,16.29 3,13 11,21 7.71,17.71 17.71,7.71"/>
  </symbol>
</svg>
