<svg xmlns="http://www.w3.org/2000/svg">
  <symbol id="image" viewBox="0 0 24 24">
    <path d="M0 0h24v24H0V0z" fill="none"/>
    <path d="M19 5v14H5V5h14m0-2H5c-1.1 0-2 .9-2 2v14c0 1.1.9 2 2 2h14c1.1 0 2-.9 2-2V5c0-1.1-.9-2-2-2zm-4.86 8.86l-3 3.87L9 13.14 6 17h12l-3.86-5.14z"/>
  </symbol>

  <symbol id="pen" viewBox="0 0 24 24">
    <path d="M0 0h24v24H0V0z" fill="none"/>
    <path d="M14.06 9.02l.92.92L5.92 19H5v-.92l9.06-9.06M17.66 3c-.25 0-.51.1-.7.29l-1.83 1.83 3.75 3.75 1.83-1.83c.39-.39.39-1.02 0-1.41l-2.34-2.34c-.2-.2-.45-.29-.71-.29zm-3.6 3.19L3 17.25V21h3.75L17.81 9.94l-3.75-3.75z"/>
  </symbol>

  <symbol id="brush" viewBox="0 0 24 24" >
    <path d="M0 0h24v24H0V0z" fill="none"/>
    <path d="M7 16c.55 0 1 .45 1 1 0 1.1-.9 2-2 2-.17 0-.33-.02-.5-.05.31-.55.5-1.21.5-1.95 0-.55.45-1 1-1M18.67 3c-.26 0-.51.1-.71.29L9 12.25 11.75 15l8.96-8.96c.39-.39.39-1.02 0-1.41l-1.34-1.34c-.2-.2-.45-.29-.7-.29zM7 14c-1.66 0-3 1.34-3 3 0 1.31-1.16 2-2 2 .92 1.22 2.49 2 4 2 2.21 0 4-1.79 4-4 0-1.66-1.34-3-3-3z"/>
  </symbol>

  <symbol id="circle" viewBox="0 0 24 24">
    <path d="M0 0h24v24H0V0z" fill="none"/>
    <path d="M12 2C6.48 2 2 6.48 2 12s4.48 10 10 10 10-4.48 10-10S17.52 2 12 2zm0 18c-4.42 0-8-3.58-8-8s3.58-8 8-8 8 3.58 8 8-3.58 8-8 8z"/>
  </symbol>

  <symbol id="rect" viewBox="0 0 24 24">
    <path d="M0 0h24v24H0z" fill="none"/>
    <path d="M19 3H5c-1.1 0-2 .9-2 2v14c0 1.1.9 2 2 2h14c1.1 0 2-.9 2-2V5c0-1.1-.9-2-2-2zm0 16H5V5h14v14z"/>
  </symbol>

  <symbol id="undo" viewBox="0 0 24 24">
    <path d="M0 0h24v24H0V0z" fill="none"/>
    <path d="M12.5 8c-2.65 0-5.05.99-6.9 2.6L2 7v9h9l-3.62-3.62c1.39-1.16 3.16-1.88 5.12-1.88 3.54 0 6.55 2.31 7.6 5.5l2.37-.78C21.08 11.03 17.15 8 12.5 8z"/>
  </symbol>

  <symbol id="redo" viewBox="0 0 24 24">
    <path d="M0 0h24v24H0V0z" fill="none"/>
    <path d="M18.4 10.6C16.55 8.99 14.15 8 11.5 8c-4.65 0-8.58 3.03-9.96 7.22L3.9 16c1.05-3.19 4.05-5.5 7.6-5.5 1.95 0 3.73.72 5.12 1.88L13 16h9V7l-3.6 3.6z"/>
  </symbol>

  <symbol id="zoomIn" viewBox="0 0 24 24">
    <path d="M0 0h24v24H0V0z" fill="none"/>
    <path d="M15.5 14h-.79l-.28-.27C15.41 12.59 16 11.11 16 9.5 16 5.91 13.09 3 9.5 3S3 5.91 3 9.5 5.91 16 9.5 16c1.61 0 3.09-.59 4.23-1.57l.27.28v.79l5 4.99L20.49 19l-4.99-5zm-6 0C7.01 14 5 11.99 5 9.5S7.01 5 9.5 5 14 7.01 14 9.5 11.99 14 9.5 14zm.5-7H9v2H7v1h2v2h1v-2h2V9h-2z"/>
  </symbol>

  <symbol id="zoomOut" viewBox="0 0 24 24">
    <path d="M0 0h24v24H0V0z" fill="none"/>
    <path d="M15.5 14h-.79l-.28-.27C15.41 12.59 16 11.11 16 9.5 16 5.91 13.09 3 9.5 3S3 5.91 3 9.5 5.91 16 9.5 16c1.61 0 3.09-.59 4.23-1.57l.27.28v.79l5 4.99L20.49 19l-4.99-5zm-6 0C7.01 14 5 11.99 5 9.5S7.01 5 9.5 5 14 7.01 14 9.5 11.99 14 9.5 14zM7 9h5v1H7z"/>
  </symbol>

  <symbol id="grid" viewBox="0 0 24 24">
    <path d="M0,0h24v24H0V0z" fill="none"/>
    <path d="M22,7V5h-3V2h-2v3h-4V2h-2v3H7V2H5v3H2v2h3v4H2v2h3v4H2v2h3v3h2v-3h4v3h2v-3h4v3h2v-3h3v-2h-3v-4h3v-2h-3V7H22z M7,7h4v4 H7V7z M7,17v-4h4v4H7z M17,17h-4v-4h4V17z M17,11h-4V7h4V11z"/>
  </symbol>

  <symbol id="lining" viewBox="0 0 24 24">
    <path d="M0 0h24v24H0V0z" fill="none"/>
    <path d="M3 21h18v-2H3v2zm0-4h18v-2H3v2zm0-4h18v-2H3v2zm0-4h18V7H3v2zm0-6v2h18V3H3z"/>
  </symbol>
</svg>
